# xmcd
#
# Track frame offsets:
# 150
# 19285
# 34833
# 50968
# 68761
# 84164
# 102063
# 118316
# 131062
# 149021
# 160251
# 172082
# 194714
# 215062
# 235488
#
# Disc length: 3341 seconds
#
#
# Revision: 0
# Processed by: cddbd v1.5.1PL2 Copyright (c) Steve Scherf et al.
# Submitted via: FreeRIP 2.944 
#
DISCID=ed0d0b0f
DTITLE=Scarub - A New Perspective
DYEAR=2004
DGENRE=Hip-Hop
TTITLE0=Just Let Go
TTITLE1=Road Work
TTITLE2=Gangsta Wit It
TTITLE3=Something Better to Say f. Kam Talbert
TTITLE4=Make Things Crack f. Luckyiam.PSC and Bicasso
TTITLE5=We Gotta
TTITLE6=Nueva Rock f. Pepah
TTITLE7=MC2 f. Eligh
TTITLE8=I Want a Car
TTITLE9=Aye Dios Mio f. Murs
TTITLE10=Day Dreams
TTITLE11=This Goes Out f. Very and Kam Talbert
TTITLE12=Look Out f. Voice Watson and Very
TTITLE13=You Know f. Grouch
TTITLE14=Just for You
EXTD=
EXTT0=
EXTT1=
EXTT2=
EXTT3=
EXTT4=
EXTT5=
EXTT6=
EXTT7=
EXTT8=
EXTT9=
EXTT10=
EXTT11=
EXTT12=
EXTT13=
EXTT14=
PLAYORDER=
